PathFileType	4	(X/Y/Z)	C:\Users\Basilio\Documents\Thesis Gigler\squatting_fais\c3dfiles\040\SLS_pre_back3\markers_experimental.trc
DataRate	CameraRate	NumFrames	NumMarkers	Units	OrigDataRate	OrigDataStartFrame	OrigNumFrames
200.000000	200.000000	4	63	mm	200.000000	705	1410
Frame#	Time	FHD			LBHD			RBHD			C7			T10			CLAV			LSHO			LUUPA			LMUPA			LDUPA			LLEP			LMEP			LRAD			LUL			LRFIN			RSHO			RUPA1			RMUPA			RDUPA			RLEP			RMEP			RRAD			RUL			RUFIN			LASI			RASI			USACR			LSACR			RSACR			LTHI1			LTHI2			LTHI3			LTHI4			LLFC			LMFC			LTIB1			LTIB2			LTIB3			LTIB4			LLMAL			LMMAL			LHEE			LMT1			LMT2			LMT5			RTHI			RTHI2			RTHI3			RTHI4			RLFC			RMFC			RTIB1			RTIB2			RTIB3			RTIB4			RLMAL			RMMAL			RHEE			RMT1			RMT2			RMT5			*61			*62			
		X1	Y1	Z1	X2	Y2	Z2	X3	Y3	Z3	X4	Y4	Z4	X5	Y5	Z5	X6	Y6	Z6	X7	Y7	Z7	X8	Y8	Z8	X9	Y9	Z9	X10	Y10	Z10	X11	Y11	Z11	X12	Y12	Z12	X13	Y13	Z13	X14	Y14	Z14	X15	Y15	Z15	X16	Y16	Z16	X17	Y17	Z17	X18	Y18	Z18	X19	Y19	Z19	X20	Y20	Z20	X21	Y21	Z21	X22	Y22	Z22	X23	Y23	Z23	X24	Y24	Z24	X25	Y25	Z25	X26	Y26	Z26	X27	Y27	Z27	X28	Y28	Z28	X29	Y29	Z29	X30	Y30	Z30	X31	Y31	Z31	X32	Y32	Z32	X33	Y33	Z33	X34	Y34	Z34	X35	Y35	Z35	X36	Y36	Z36	X37	Y37	Z37	X38	Y38	Z38	X39	Y39	Z39	X40	Y40	Z40	X41	Y41	Z41	X42	Y42	Z42	X43	Y43	Z43	X44	Y44	Z44	X45	Y45	Z45	X46	Y46	Z46	X47	Y47	Z47	X48	Y48	Z48	X49	Y49	Z49	X50	Y50	Z50	X51	Y51	Z51	X52	Y52	Z52	X53	Y53	Z53	X54	Y54	Z54	X55	Y55	Z55	X56	Y56	Z56	X57	Y57	Z57	X58	Y58	Z58	X59	Y59	Z59	X60	Y60	Z60	X61	Y61	Z61	X62	Y62	Z62	X63	Y63	Z63	

706	3.525	-18.11604309082032	1531.07861328125	-1251.036743164063	-144.9949645996094	1486.77392578125	-1291.943237304688	-201.0237426757813	1454.768188476563	-1160.074462890625	-224.7979888916016	1363.403076171875	-1200.948486328125	-400.1029663085939	1109.961547851563	-1163.422973632813	-128.5323638916016	1256.685424804688	-1208.694580078125	-165.0051879882813	1337.730346679688	-1340.981811523438	-28.63774490356446	1273.466796875	-1432.47607421875	6.368586063385012	1279.943359375	-1397.795288085938	37.28408432006837	1251.997192382813	-1442.484741210938	90.37993621826173	1216.230346679688	-1448.33349609375	72.52268981933595	1159.926147460938	-1418.106079101563	357.0242309570313	1188.533203125	-1321.60400390625	367.6722106933594	1196.207641601563	-1397.335205078125	443.2999267578126	1192.47607421875	-1310.72216796875	-127.9929656982422	1328.555419921875	-1076.743408203125	16.48884391784668	1246.288818359375	-1008.894836425781	45.85126495361329	1262.941040039063	-1043.927856445313	82.43511199951173	1220.920532226563	-1018.2197265625	141.2382354736328	1202.562866210938	-1035.537231445313	116.7866668701172	1143.215087890625	-1077.156372070313	373.4696350097657	1213.487060546875	-1217.821899414063	397.3831176757814	1195.199462890625	-1147.761596679688	466.6181945800782	1205.258178710938	-1237.230102539063	-327.5389404296876	884.4848632812502	-1256.247436523438	-320.9089660644532	879.6921386718752	-1035.377075195313	-479.7897033691407	989.5242919921877	-1144.530883789063	-503.4323120117189	965.1848144531252	-1172.227416992188	-498.8859252929689	964.8701782226565	-1115.563720703125	-331.9630432128907	660.1943969726564	-1312.40966796875	-253.3226623535157	627.5496826171876	-1317.572998046875	-218.4957122802735	659.1686401367189	-1318.330688476563	-234.9844818115235	573.5787353515626	-1296.586547851563	-144.659912109375	488.8362121582032	-1277.1083984375	-159.531982421875	487.0104980468751	-1154.664916992188	-174.6649169921875	280.3502807617188	-1205.281372070313	-248.9371643066407	266.2598571777344	-1252.7734375	-214.6952056884766	247.1021423339844	-1230.290283203125	-245.3833618164063	178.4798278808594	-1187.286743164063	-341.5424804687501	121.6490554809571	-1204.856201171875	-311.8456115722657	137.8463745117188	-1120.686889648438	-413.146209716797	94.92689514160158	-1155.212158203125	-200.221176147461	54.33481979370119	-1133.099975585938	-200.1154327392579	50.37603759765626	-1178.560302734375	-253.0453491210938	38.10591888427735	-1227.03076171875	-411.707977294922	633.6124877929689	-961.6765136718752	-389.4145812988282	570.8652954101564	-967.2708740234377	-359.3508300781251	565.7093505859376	-978.0731201171877	-434.8577880859376	500.6867980957032	-969.0451660156252	-460.4830017089845	396.329071044922	-972.3487548828127	-491.0883789062501	392.702850341797	-1098.225219726563	-622.8835449218751	308.5693969726563	-972.129089355469	-700.2481689453126	374.2723999023438	-929.369323730469	-701.0808715820314	327.8122253417969	-940.5720214843752	-751.8287353515626	308.0362854003907	-964.7844848632815	-869.1777343750002	346.4308166503907	-923.1670532226565	-864.8350219726565	336.5694580078126	-1013.218933105469	-915.9151000976565	413.8851623535157	-970.5615234375002	-931.2697753906252	195.6459655761719	-1004.785278320313	-928.7459716796877	191.7378082275391	-964.337585449219	-952.7891845703127	228.2612304687501	-909.695251464844	nan	nan	nan	nan	nan	nan	
707	3.53	-17.35284042358399	1529.447387695313	-1251.0458984375	-144.3675689697266	1485.168701171875	-1291.782470703125	-200.584213256836	1453.094482421875	-1159.842529296875	-223.7418670654297	1361.760375976563	-1200.700317382813	-399.5488586425782	1109.237670898438	-1163.108154296875	-128.000473022461	1255.255126953125	-1208.69384765625	-164.4811248779297	1336.20556640625	-1340.713989257813	-28.09515190124512	1272.115600585938	-1432.36572265625	6.847455978393556	1278.716186523438	-1397.596435546875	38.15626907348634	1250.232299804688	-1442.208129882813	90.4899368286133	1214.847900390625	-1448.259521484375	72.6754608154297	1158.531860351563	-1417.907470703125	357.7602233886719	1186.419921875	-1321.34130859375	368.2117614746094	1194.180053710938	-1397.3466796875	443.548553466797	1190.98046875	-1310.942138671875	-127.1411743164063	1326.963989257813	-1076.614501953125	17.45125389099121	1245.053588867188	-1008.889831542969	46.56591033935548	1261.426879882813	-1044.027221679688	83.22157287597658	1219.312133789063	-1018.258972167969	142.027328491211	1200.783569335938	-1035.643310546875	117.6873092651367	1142.299194335938	-1077.449462890625	374.2118225097657	1211.969848632813	-1217.885131835938	397.9507446289064	1193.391967773438	-1147.843017578125	467.5417785644532	1203.298217773438	-1237.599487304688	-327.8882141113282	883.4976806640627	-1255.931884765625	-321.4817199707032	878.8560791015627	-1035.13037109375	-480.1892395019532	988.5858154296877	-1144.428955078125	-503.6262512207032	964.289001464844	-1172.152099609375	-499.3692016601564	964.0390625000002	-1115.625610351563	-332.0670471191407	659.4316406250001	-1312.260620117188	-253.2422790527344	627.0747680664064	-1317.49609375	-218.4898223876954	658.6738891601564	-1318.27490234375	-234.7243347167969	573.0065307617189	-1296.395141601563	-144.3166656494141	488.5464477539064	-1276.89599609375	-159.4271697998047	486.8353576660157	-1154.70703125	-174.2243041992188	280.3414001464844	-1204.970458984375	-248.5178985595704	266.0392761230469	-1252.6064453125	-214.3734893798829	246.8788146972657	-1230.000122070313	-245.2002258300782	178.390365600586	-1187.008056640625	-341.8969116210938	122.0228576660157	-1204.76904296875	-311.9194030761719	137.9127960205078	-1120.470825195313	-413.2017517089845	94.80081939697267	-1155.269287109375	-200.2174224853516	54.21825027465822	-1133.005493164063	-200.0405731201172	50.43065643310548	-1178.40869140625	-253.0169067382813	38.19298553466798	-1226.980834960938	-412.438934326172	632.5686645507814	-961.5796508789065	-390.1203613281251	569.9497070312501	-967.107604980469	-359.7867126464844	564.5682373046876	-978.2239990234377	-435.4084472656251	499.7297363281251	-969.270446777344	-460.9164428710939	395.3588256835939	-972.6147460937502	-491.9656677246095	392.1043701171876	-1098.558837890625	-622.8935546875001	308.4552001953126	-970.912536621094	-700.6416015625001	373.3908386230469	-929.5734863281252	-701.6590576171876	327.2539062500001	-940.699890136719	-752.2182617187501	307.8143615722657	-965.164245605469	-869.898864746094	346.2771301269532	-923.0206298828127	-865.569763183594	336.4017333984376	-1013.104736328125	-916.4722290039065	413.6334533691407	-970.353210449219	-932.3776855468752	195.7074584960938	-1004.919006347656	-929.6046142578127	191.2384338378907	-964.2446899414065	-954.0982666015627	226.8539276123047	-909.7551879882815	nan	nan	nan	nan	nan	nan	
708	3.535	-16.59744262695313	1527.574462890625	-1250.9111328125	-143.5493927001953	1483.454345703125	-1291.705078125	-199.7355041503907	1451.380981445313	-1159.731201171875	-223.2600097656251	1360.434326171875	-1200.535400390625	-399.8676147460939	1107.84814453125	-1163.15380859375	-127.5248260498047	1253.490600585938	-1208.671142578125	-163.7887725830078	1334.75439453125	-1340.515991210938	-27.72812843322755	1270.519409179688	-1432.179565429688	7.289111137390138	1276.8388671875	-1397.415405273438	38.34270095825196	1248.843139648438	-1442.128295898438	90.80064392089845	1213.213500976563	-1448.115844726563	73.22771453857423	1156.82666015625	-1417.8818359375	358.3526611328126	1184.592651367188	-1321.43115234375	368.7946166992188	1192.185668945313	-1397.4140625	444.1402893066407	1188.968505859375	-1310.841186523438	-126.0965652465821	1325.353271484375	-1076.3310546875	18.41914939880371	1243.0751953125	-1008.98681640625	47.31654739379884	1259.825317382813	-1044.156860351563	83.8088836669922	1217.598022460938	-1018.069274902344	142.8813018798828	1199.29931640625	-1035.785034179688	118.4379425048828	1140.573852539063	-1077.788818359375	374.8858947753907	1210.754150390625	-1218.149658203125	399.0047607421876	1192.294799804688	-1147.804565429688	467.9825134277345	1201.587158203125	-1237.768188476563	-328.1862792968751	882.6994628906252	-1255.827270507813	-322.2084655761719	877.397888183594	-1034.984985351563	-480.3788452148439	987.7470703125002	-1144.477905273438	-503.9536743164064	963.3139648437502	-1172.179443359375	-499.6876831054689	963.139099121094	-1115.454467773438	-332.1165161132813	658.7058105468751	-1312.050659179688	-253.2086639404297	626.5026245117189	-1317.3427734375	-218.4793395996094	658.1550292968751	-1318.047241210938	-234.6362915039063	572.4821777343751	-1296.160400390625	-144.018310546875	488.3617248535157	-1276.71435546875	-159.4275054931641	486.8851623535157	-1154.642700195313	-173.7694091796875	279.8224792480469	-1204.537475585938	-248.1680908203126	265.7147216796876	-1252.366333007813	-214.0835113525391	246.8127746582032	-1229.71923828125	-245.0241699218751	178.3357849121094	-1186.750122070313	-341.7893371582032	121.9243469238282	-1204.692504882813	-311.9407348632813	137.7427368164063	-1120.302368164063	-413.2335205078126	94.84925079345705	-1155.265014648438	-200.4595642089844	54.45140838623048	-1132.902954101563	-200.0429992675782	50.50915145874025	-1178.4423828125	-252.6297149658204	38.02193069458009	-1226.894287109375	-413.4205322265626	631.4865112304689	-961.6250610351565	-390.9493103027345	568.8914184570314	-967.2043457031252	-360.1593322753907	563.5144653320314	-978.8081665039065	-436.064422607422	498.6275939941407	-969.6084594726565	-462.0842285156251	393.8953552246095	-973.2083740234377	-491.7380981445314	390.4818115234376	-1098.538818359375	-623.6107177734376	307.5973815917969	-971.2028808593752	-701.1433105468751	372.6897888183594	-929.6743774414065	-702.0148925781251	326.3590393066407	-941.0571289062502	-753.7459716796876	306.4672546386719	-965.3311767578127	-870.484313964844	345.6873779296876	-922.8818969726565	-866.3117675781252	336.0900878906251	-1012.985473632813	-917.2670898437502	413.4040832519532	-970.0401611328127	-933.0293579101565	195.0732116699219	-1004.830627441406	-930.0354003906252	189.998046875	-963.5132446289065	-954.1787719726565	227.5116729736329	-909.3471679687502	nan	nan	nan	nan	nan	nan	
709	3.54	-15.83835029602051	1525.916870117188	-1250.851196289063	-142.8352966308594	1481.724731445313	-1291.638549804688	-198.8986053466797	1449.821533203125	-1159.577880859375	-223.0941314697266	1358.7841796875	-1200.562866210938	-399.8179016113282	1106.822387695313	-1162.945556640625	-127.0049743652344	1251.923461914063	-1208.604614257813	-163.1720428466797	1333.355590820313	-1340.22265625	-26.72710609436036	1269.0126953125	-1431.957275390625	8.197608947753908	1275.235229492188	-1397.128295898438	38.33115386962891	1246.980102539063	-1441.54248046875	91.60180664062501	1211.3115234375	-1447.93115234375	73.56568145751955	1155.0615234375	-1417.734985351563	359.2667541503907	1183.22216796875	-1321.206420898438	368.5885925292969	1190.310913085938	-1397.317504882813	444.827362060547	1187.445922851563	-1311.094970703125	-126.2310333251953	1323.315063476563	-1076.857055664063	19.08369636535645	1241.4873046875	-1009.051635742188	48.17994308471681	1258.27294921875	-1044.177124023438	84.50390625000001	1216.122436523438	-1017.948486328125	143.8512573242188	1198.047119140625	-1035.955932617188	119.4333114624024	1139.199584960938	-1077.726928710938	376.1602478027344	1209.61181640625	-1218.527954101563	399.8689575195314	1190.619384765625	-1147.815185546875	468.5545654296876	1199.68359375	-1237.8935546875	-328.5757446289063	881.701599121094	-1255.742431640625	-322.8541259765626	876.5591430664065	-1034.604248046875	-480.7565307617189	986.9108886718752	-1144.500366210938	-504.3049926757814	962.6196289062502	-1172.164428710938	-499.8214111328126	962.2788696289065	-1115.41552734375	-332.2395019531251	658.0701293945314	-1311.99609375	-252.9801635742188	625.7758178710939	-1317.10595703125	-218.5168457031251	657.7496337890626	-1317.870849609375	-234.5581054687501	572.0278930664064	-1296.048095703125	-143.4376983642578	488.1543273925782	-1276.362915039063	-159.2295532226563	486.7559204101564	-1154.425170898438	-173.5230865478516	279.6954650878907	-1204.09619140625	-247.5577697753907	265.5058898925782	-1252.116088867188	-213.8807525634766	246.7027893066407	-1229.494262695313	-244.8742828369141	178.1680603027344	-1186.373168945313	-342.0238647460938	122.2184295654297	-1204.646850585938	-311.8841552734376	137.7268981933594	-1120.13427734375	-413.2409973144532	94.83738708496095	-1155.2646484375	-200.1941528320313	54.09609222412111	-1132.77490234375	-200.087387084961	50.58415603637697	-1178.411987304688	-252.7589263916016	38.12972640991212	-1226.890991210938	-414.2705078125001	630.7104492187501	-961.5042724609377	-391.3638000488282	567.8162231445314	-967.266052246094	-360.6967468261719	562.5595092773439	-979.1497802734377	-436.7408142089845	497.4628906250001	-969.9760742187502	-462.0124816894532	393.3465881347657	-973.1111450195315	-492.3981933593751	389.5932617187501	-1098.763427734375	-624.4736328125001	306.9716186523438	-971.420837402344	-701.7974853515626	372.1077575683594	-929.7727050781252	-702.9653320312501	325.7608032226563	-940.685729980469	-754.0527343750001	306.9577636718751	-964.4476318359377	-871.4619750976565	345.4030456542969	-922.632995605469	-867.1067504882815	335.7859497070313	-1012.929138183594	-918.0330810546877	413.0391845703126	-969.809020996094	-933.756042480469	194.6787567138672	-1004.825317382813	-930.891296386719	190.2445831298828	-964.208679199219	-954.7642211914065	226.9104156494141	-909.4073486328127	nan	nan	nan	nan	nan	nan	
